<?xml version="1.0" encoding="UTF-8" standalone="no"?>
<!-- Created with Inkscape (http://www.inkscape.org/) -->

<svg
   xmlns:dc="http://purl.org/dc/elements/1.1/"
   xmlns:cc="http://creativecommons.org/ns#"
   xmlns:rdf="http://www.w3.org/1999/02/22-rdf-syntax-ns#"
   xmlns:svg="http://www.w3.org/2000/svg"
   xmlns="http://www.w3.org/2000/svg"
   xmlns:sodipodi="http://sodipodi.sourceforge.net/DTD/sodipodi-0.dtd"
   xmlns:inkscape="http://www.inkscape.org/namespaces/inkscape"
   width="210mm"
   height="297mm"
   viewBox="0 0 210 297"
   version="1.1"
   id="svg8"
   inkscape:version="0.92.3 (2405546, 2018-03-11)"
   sodipodi:docname="award_1.svg">
  <defs
     id="defs2" />
  <sodipodi:namedview
     id="base"
     pagecolor="#ffffff"
     bordercolor="#666666"
     borderopacity="1.0"
     inkscape:pageopacity="0.0"
     inkscape:pageshadow="2"
     inkscape:zoom="0.7"
     inkscape:cx="393.0897"
     inkscape:cy="714.47101"
     inkscape:document-units="mm"
     inkscape:current-layer="layer1"
     showgrid="false"
     inkscape:window-width="1920"
     inkscape:window-height="1001"
     inkscape:window-x="-9"
     inkscape:window-y="-9"
     inkscape:window-maximized="1" />
  <metadata
     id="metadata5">
    <rdf:RDF>
      <cc:Work
         rdf:about="">
        <dc:format>image/svg+xml</dc:format>
        <dc:type
           rdf:resource="http://purl.org/dc/dcmitype/StillImage" />
        <dc:title></dc:title>
      </cc:Work>
    </rdf:RDF>
  </metadata>
  <g
     inkscape:label="Layer 1"
     inkscape:groupmode="layer"
     id="layer1">
    <path
       style="fill:#53676c;fill-opacity:1;stroke:none;stroke-width:1.27028775;stroke-linecap:round;stroke-linejoin:round;stroke-miterlimit:7.30000019;stroke-dasharray:none;stroke-opacity:1"
       d="M 134.84355,123.88008 91.54229,98.88009 27.244,210.248 57.610202,207.36075 70.545265,235.248 Z"
       id="rect853-5"
       inkscape:connector-curvature="0"
       sodipodi:nodetypes="cccccc" />
    <path
       style="fill:#93a7ac;fill-opacity:1;stroke:none;stroke-width:1.27028787;stroke-linecap:round;stroke-linejoin:round;stroke-miterlimit:7.30000019;stroke-dasharray:none;stroke-opacity:1"
       d="M 72.243993,123.88009 115.54527,98.8801 179.84357,210.24801 149.47735,207.36075 136.54229,235.248 Z"
       id="rect853"
       inkscape:connector-curvature="0"
       sodipodi:nodetypes="cccccc" />
    <path
       inkscape:connector-curvature="0"
       style="fill:#ffcc00;fill-opacity:1;stroke:#f39c12;stroke-width:2.0238359;stroke-linecap:round;stroke-linejoin:round;stroke-miterlimit:7.30000019;stroke-dasharray:none;stroke-opacity:1"
       inkscape:transform-center-x="4.4459858"
       inkscape:transform-center-y="-2.7071056"
       d="m 151.1481,138.71004 2.59392,12.96695 -12.4826,-4.2856 -0.15253,13.22414 -11.32085,-6.7932 -2.89233,12.90337 -9.66433,-9.00392 -5.50571,12.01867 -7.58542,-10.82113 -7.878472,10.60869 -5.175005,-12.1654 -9.9069,8.73506 -2.538412,-12.97797 -11.502353,6.47967 0.209123,-13.22336 -12.595097,3.94108 2.947518,-12.89082 -13.137376,1.23026 5.557092,-11.99489 -13.105488,-1.53435 7.923795,-10.57471 -12.500828,-4.23189 9.944191,-8.69239 -11.349821,-6.74447 11.529977,-6.43015 -9.702773,-8.96229 12.611847,-3.8869 -7.631666,-10.78841 13.142519,-1.17376 -5.22702,-12.14304 13.098801,1.59068 -2.593928,-12.966945 12.482603,4.285589 0.152532,-13.224137 11.320853,6.793203 2.892325,-12.903371 9.664329,9.003921 5.505709,-12.018667 7.585425,10.821126 7.87847,-10.608689 5.17501,12.165394 9.9069,-8.73506 2.53841,12.977976 11.50235,-6.479667 -0.20912,13.223359 12.5951,-3.941082 -2.94752,12.89082 13.13737,-1.23025 -5.55709,11.99488 13.10549,1.53435 -7.9238,10.57472 12.50084,4.23188 -9.9442,8.69239 11.34982,6.74447 -11.52997,6.43015 9.70277,8.96229 -12.61185,3.8869 7.63167,10.78841 -13.14252,1.17377 5.22702,12.14302 z"
       id="path815" />
    <path
       inkscape:connector-curvature="0"
       style="fill:#ffcc00;fill-opacity:1;stroke:#f39c12;stroke-width:7.9375;stroke-linecap:round;stroke-linejoin:round;stroke-miterlimit:7.30000019;stroke-dasharray:none;stroke-opacity:1"
       d="M 159.38422,95.9 A 54.384224,54.384224 0 0 1 105,150.28422 54.384224,54.384224 0 0 1 50.615776,95.9 54.384224,54.384224 0 0 1 105,41.515776 54.384224,54.384224 0 0 1 159.38422,95.9 Z"
       id="path817" />
    <path
       inkscape:connector-curvature="0"
       style="fill:#f39c12;fill-opacity:1;stroke:#f39c12;stroke-width:3.86168075;stroke-linecap:round;stroke-linejoin:round;stroke-miterlimit:7.30000019;stroke-dasharray:none;stroke-opacity:1"
       d="m 128.38489,133.04676 -23.37333,-15.60747 -23.361411,15.6265 7.140543,-27.79564 -21.599889,-18.13211 27.786425,-1.57118 10.011942,-26.83276 10.03242,26.8246 27.78761,1.54855 -21.58606,18.14969 z"
       id="path819" />
  </g>
</svg>
