<?xml version="1.0" encoding="UTF-8" standalone="no"?>
<!-- Created with Inkscape (http://www.inkscape.org/) -->

<svg
   xmlns:dc="http://purl.org/dc/elements/1.1/"
   xmlns:cc="http://creativecommons.org/ns#"
   xmlns:rdf="http://www.w3.org/1999/02/22-rdf-syntax-ns#"
   xmlns:svg="http://www.w3.org/2000/svg"
   xmlns="http://www.w3.org/2000/svg"
   xmlns:sodipodi="http://sodipodi.sourceforge.net/DTD/sodipodi-0.dtd"
   xmlns:inkscape="http://www.inkscape.org/namespaces/inkscape"
   width="210mm"
   height="297mm"
   viewBox="0 0 210 297"
   version="1.1"
   id="svg8"
   sodipodi:docname="award_2.svg"
   inkscape:version="0.92.3 (2405546, 2018-03-11)">
  <defs
     id="defs2" />
  <sodipodi:namedview
     id="base"
     pagecolor="#ffffff"
     bordercolor="#666666"
     borderopacity="1.0"
     inkscape:pageopacity="0.0"
     inkscape:pageshadow="2"
     inkscape:zoom="0.98994949"
     inkscape:cx="365.9731"
     inkscape:cy="622.05533"
     inkscape:document-units="mm"
     inkscape:current-layer="layer1"
     showgrid="false"
     inkscape:window-width="1920"
     inkscape:window-height="1001"
     inkscape:window-x="-9"
     inkscape:window-y="-9"
     inkscape:window-maximized="1" />
  <metadata
     id="metadata5">
    <rdf:RDF>
      <cc:Work
         rdf:about="">
        <dc:format>image/svg+xml</dc:format>
        <dc:type
           rdf:resource="http://purl.org/dc/dcmitype/StillImage" />
        <dc:title />
      </cc:Work>
    </rdf:RDF>
  </metadata>
  <g
     inkscape:label="Layer 1"
     inkscape:groupmode="layer"
     id="layer1">
    <path
       style="fill:#53676c;fill-opacity:1;stroke:none;stroke-width:1.27028775;stroke-linecap:round;stroke-linejoin:round;stroke-miterlimit:7.30000019;stroke-dasharray:none;stroke-opacity:1"
       d="M 134.84355,123.88008 91.54229,98.88009 27.244,210.248 57.610202,207.36075 70.545265,235.248 Z"
       id="rect853-5"
       inkscape:connector-curvature="0"
       sodipodi:nodetypes="cccccc" />
    <path
       style="fill:#93a7ac;fill-opacity:1;stroke:none;stroke-width:1.27028787;stroke-linecap:round;stroke-linejoin:round;stroke-miterlimit:7.30000019;stroke-dasharray:none;stroke-opacity:1"
       d="M 72.243993,123.88009 115.54527,98.8801 179.84357,210.24801 149.47735,207.36075 136.54229,235.248 Z"
       id="rect853"
       inkscape:connector-curvature="0"
       sodipodi:nodetypes="cccccc" />
    <path
       sodipodi:type="star"
       style="fill:#ffcc00;fill-opacity:1;stroke:#f39c12;stroke-width:1.05833328;stroke-linecap:round;stroke-linejoin:round;stroke-miterlimit:7.30000019;stroke-dasharray:none;stroke-opacity:1"
       id="path902"
       sodipodi:sides="30"
       sodipodi:cx="-55.859333"
       sodipodi:cy="43.093948"
       sodipodi:r1="29.872807"
       sodipodi:r2="37.813679"
       sodipodi:arg1="0.60956789"
       sodipodi:arg2="0.71428765"
       inkscape:flatsided="false"
       inkscape:rounded="-2.53"
       inkscape:randomized="0"
       d="m -31.366754,60.196525 c 12.580226,-18.016126 -10.316581,24.270824 4.077927,7.668384 14.394508,-16.60244 -24.220055,12.057032 -8.168974,-2.949823 16.051081,-15.006854 -15.137328,21.595511 2.394468,8.34866 17.531795,-13.24685 -26.197587,6.757924 -7.37716,-4.583787 18.820427,-11.341711 -19.2965,17.976369 0.606359,8.66406 19.902858,-9.31231 -27.030158,1.163462 -6.262929,-6.017418 20.76723,-7.180881 -22.612322,13.571574 -1.20825,8.600797 21.404071,-4.970776 -26.681382,-4.481847 -4.874977,-7.188059 21.806405,-2.706211 -24.939878,8.573637 -2.970054,8.161641 21.969823,-0.411997 -25.166501,-9.93128 -3.273966,-8.044547 21.892536,1.886732 -26.17744,3.20099 -4.602051,7.36578 21.575389,4.164789 -22.551724,-14.946668 -1.529866,-8.549451 21.021858,6.397217 -26.270924,-2.311555 -6.032917,6.248 20.238006,8.559555 -18.951328,-19.308814 0.281095,-8.680701 19.232424,10.628112 -25.216242,-7.723074 -7.200115,4.857152 18.016125,12.580226 -14.522668,-22.827073 2.079772,-8.432564 16.60244,14.394508 -23.059489,-12.797058 -8.052635,3.254023 15.006855,16.051081 -9.459297,-25.347679 3.787554,-7.815884 13.24685,17.531796 -19.894927,-17.311749 -8.553215,1.508679 11.341711,18.820426 -3.98251,-26.76047 5.329799,-6.857611 9.31231,19.902858 -15.860859,-21.069834 -8.679978,-0.302604 7.180881,20.76723 1.668332,-27.003699 6.639108,-5.599628 4.970777,21.404072 -11.133597,-23.907065 -8.427385,-2.10066 2.706211,21.806405 7.246259,-26.066738 7.658256,-4.096914 0.411996,21.969823 -5.919743,-25.699444 -7.806475,-3.806907 -1.886733,21.892535 12.507491,-23.990536 8.342701,-2.415147 -4.16479,21.57539 -0.447168,-26.368632 -6.844384,-5.346774 -6.397217,21.021857 17.222084,-20.865831 8.66253,-0.627825 -8.559555,20.238007 5.044951,-25.8853856 -5.583161,-6.652962 -10.628112,19.232423 21.183991,-16.8291894 8.603765,1.186936 -12.580226,18.016127 10.316581,-24.2708234 -4.077927,-7.668383 -14.394508,16.60244 24.220055,-12.057032 8.168974,2.949822 -16.051081,15.006855 15.137327,-21.59550996 -2.394468,-8.348659 -17.531795,13.24685 26.197587,-6.7579246 7.37716,4.583786 -18.820427,11.341712 19.2965,-17.97636868 -0.606359,-8.6640588 -19.902858,9.3123098 27.030158,-1.1634627 6.262929,6.0174178 -20.76723,7.180881 22.612322,-13.5715744 1.20825,-8.6007977 -21.404071,4.9707767 26.681382,4.4818477 4.874977,7.1880587 -21.806405,2.706212 24.939878,-8.5736367 2.970054,-8.1616402 -21.969823,0.4119966 25.166501,9.9312802 3.273965,8.0445472 -21.892536,-1.886732 26.177441,-3.20099 4.602052,-7.3657799 -21.575389,-4.1647897 22.551724,14.9466669 1.529866,8.5494499 -21.021858,-6.3972165 26.270924,2.311555 6.032917,-6.2479994 -20.238006,-8.55955458 18.951328,19.3088134 -0.281095,8.6807014 -19.232424,-10.6281124 25.216242,7.723074 7.200115,-4.857152 -18.016126,-12.58022586 14.522668,22.827072 -2.079772,8.432564 -16.60244,-14.3945082 23.059489,12.797058 8.052635,-3.254023 -15.006855,-16.0510811 9.459297,25.347678 -3.787554,7.815883 -13.24685,-17.531795 19.894927,17.311749 8.553215,-1.508678 -11.341711,-18.8204267 3.98251,26.760469 -5.329799,6.857611 -9.31231,-19.902858 15.860859,21.069834 8.679978,0.302604 -7.180881,-20.7672302 -1.668332,27.003699 -6.639108,5.599628 -4.970777,-21.404072 11.133597,23.907065 8.427385,2.100659 -2.706211,-21.806405 -7.246259,26.066738 -7.658256,4.096915 -0.411996,-21.969824 5.919743,25.699443 7.806475,3.806907 1.886732,-21.892535 -12.507491,23.990535 -8.342701,2.415146 4.16479,-21.575389 0.447167,26.368633 6.844384,5.346775 6.397217,-21.021858 -17.222085,20.865831 -8.66253,0.627824 8.559555,-20.238006 -5.044951,25.885386 5.583161,6.652963 10.628112,-19.232424 -21.183991,16.829189 -8.603765,-1.186937 z"
       transform="matrix(1.958177,0,0,1.9641553,214.38246,11.054806)" />
    <path
       inkscape:connector-curvature="0"
       style="fill:#ffcc00;fill-opacity:1;stroke:#f39c12;stroke-width:7.9375;stroke-linecap:round;stroke-linejoin:round;stroke-miterlimit:7.30000019;stroke-dasharray:none;stroke-opacity:1"
       d="M 159.38422,95.9 A 54.384224,54.384224 0 0 1 105,150.28422 54.384224,54.384224 0 0 1 50.615776,95.9 54.384224,54.384224 0 0 1 105,41.515776 54.384224,54.384224 0 0 1 159.38422,95.9 Z"
       id="path817" />
    <g
       aria-label="#1"
       transform="matrix(0.44380861,0,0,0.44380861,-78.009005,-44.831023)"
       style="font-style:normal;font-variant:normal;font-weight:normal;font-stretch:normal;font-size:192px;line-height:1.25;font-family:Roboto;-inkscape-font-specification:Roboto;text-align:center;letter-spacing:0px;word-spacing:0px;text-anchor:middle;fill:#e08e0b;fill-opacity:1;stroke:#7a4d05;stroke-opacity:1"
       id="flowRoot904">
      <path
         d="m 373.32324,343.95508 h -24.75 l -7.5,38.4375 h -13.40625 l 7.5,-38.4375 h -22.40625 v -12.84375 h 24.84375 l 6.46875,-33.1875 h -24.1875 v -13.03125 h 26.71875 l 7.6875,-39 h 13.40625 l -7.6875,39 h 24.75 l 7.6875,-39 h 13.5 l -7.6875,39 h 19.125 v 13.03125 h -21.65625 l -6.46875,33.1875 h 21.09375 v 12.84375 h -23.53125 l -7.5,38.4375 h -13.5 z m -22.3125,-12.84375 h 24.75 l 6.46875,-33.1875 h -24.75 z"
         id="path828"
         inkscape:connector-curvature="0" />
      <path
         d="m 488.07324,382.39258 h -17.4375 V 266.79883 l -34.96875,12.84375 v -15.75 l 49.6875,-18.65625 h 2.71875 z"
         id="path830"
         inkscape:connector-curvature="0" />
    </g>
  </g>
</svg>
