<?xml version="1.0" encoding="UTF-8" standalone="no"?>
<!-- Created with Inkscape (http://www.inkscape.org/) -->

<svg
   xmlns:dc="http://purl.org/dc/elements/1.1/"
   xmlns:cc="http://creativecommons.org/ns#"
   xmlns:rdf="http://www.w3.org/1999/02/22-rdf-syntax-ns#"
   xmlns:svg="http://www.w3.org/2000/svg"
   xmlns="http://www.w3.org/2000/svg"
   xmlns:sodipodi="http://sodipodi.sourceforge.net/DTD/sodipodi-0.dtd"
   xmlns:inkscape="http://www.inkscape.org/namespaces/inkscape"
   width="210mm"
   height="297mm"
   viewBox="0 0 210 297"
   version="1.1"
   id="svg8"
   inkscape:version="0.92.3 (2405546, 2018-03-11)"
   sodipodi:docname="logo.svg">
  <defs
     id="defs2" />
  <sodipodi:namedview
     id="base"
     pagecolor="#ffffff"
     bordercolor="#666666"
     borderopacity="1.0"
     inkscape:pageopacity="0.0"
     inkscape:pageshadow="2"
     inkscape:zoom="0.7"
     inkscape:cx="370.2234"
     inkscape:cy="627.41576"
     inkscape:document-units="mm"
     inkscape:current-layer="layer1"
     showgrid="false"
     inkscape:window-width="1920"
     inkscape:window-height="1001"
     inkscape:window-x="-9"
     inkscape:window-y="-9"
     inkscape:window-maximized="1"
     showguides="false" />
  <metadata
     id="metadata5">
    <rdf:RDF>
      <cc:Work
         rdf:about="">
        <dc:format>image/svg+xml</dc:format>
        <dc:type
           rdf:resource="http://purl.org/dc/dcmitype/StillImage" />
        <dc:title />
      </cc:Work>
    </rdf:RDF>
  </metadata>
  <g
     inkscape:label="Layer 1"
     inkscape:groupmode="layer"
     id="layer1">
    <path
       style="fill:#ffffff;fill-opacity:1;stroke:none;stroke-width:1.1187402;stroke-linecap:round;stroke-linejoin:round;stroke-miterlimit:7.30000019;stroke-dasharray:none"
       d="M 115.41992 183.86523 C 62.255594 183.86523 19.457031 226.66575 19.457031 279.83008 L 19.457031 842.68945 C 19.457031 895.85376 62.255594 938.6543 115.41992 938.6543 L 678.2793 938.6543 C 731.44361 938.6543 774.24414 895.85376 774.24414 842.68945 L 774.24414 279.83008 C 774.24414 226.66575 731.44361 183.86523 678.2793 183.86523 L 115.41992 183.86523 z M 471.54688 276.7793 C 528.219 276.7793 570.47163 294.16178 598.30469 328.92578 C 626.47308 363.68978 641.06039 416.00866 642.06641 485.88086 L 642.06641 845.74023 L 472.05078 845.74023 L 472.05078 493.10938 C 472.05078 464.88514 466.51733 444.23187 455.45117 431.15234 C 444.38502 417.72862 424.26425 411.01758 395.08984 411.01758 C 361.89138 411.01758 337.24466 424.44162 321.14844 451.28906 L 321.14844 845.74023 L 151.63477 845.74023 L 151.63477 287.10547 L 310.58398 287.10547 L 316.11719 352.67578 C 353.67505 302.07867 405.48528 276.7793 471.54688 276.7793 z "
       transform="scale(0.26458333)"
       id="rect10" />
    <g
       aria-label="n"
       transform="matrix(1.4195977,0,0,1.457105,-444.61027,-524.76504)"
       style="font-style:normal;font-variant:normal;font-weight:900;font-stretch:normal;font-size:192px;line-height:1.25;font-family:Roboto;-inkscape-font-specification:'Roboto Heavy';font-variant-ligatures:normal;font-variant-caps:normal;font-variant-numeric:normal;font-feature-settings:normal;text-align:center;letter-spacing:0px;word-spacing:0px;writing-mode:lr-tb;text-anchor:middle;fill:#f5f6fa;fill-opacity:1;stroke:none"
       id="flowRoot6569" />
  </g>
</svg>
